<mxfile host="app.diagrams.net" modified="2024-05-28T11:45:20.291Z" agent="Mozilla/5.0 (Windows NT 10.0; Win64; x64) AppleWebKit/537.36 (KHTML, like Gecko) Chrome/125.0.0.0 Safari/537.36" etag="c5mouzN9SKYhpl8CWFOY" version="24.4.9" type="device">
  <diagram name="Page-1" id="-Onxnbn9xR5KZ_T1dZoe">
    <mxGraphModel dx="1434" dy="780" grid="1" gridSize="10" guides="1" tooltips="1" connect="1" arrows="1" fold="1" page="1" pageScale="1" pageWidth="850" pageHeight="1100" math="0" shadow="0">
      <root>
        <mxCell id="0" />
        <mxCell id="1" parent="0" />
        <mxCell id="6TGc007-YJCL6H7LoQrK-7" value="INVENTAR VOZILA" style="rounded=0;whiteSpace=wrap;html=1;" vertex="1" parent="1">
          <mxGeometry x="610" y="370" width="140" height="80" as="geometry" />
        </mxCell>
        <mxCell id="6TGc007-YJCL6H7LoQrK-9" value="" style="endArrow=none;html=1;rounded=0;exitX=0;exitY=0.25;exitDx=0;exitDy=0;entryX=1;entryY=0.25;entryDx=0;entryDy=0;" edge="1" parent="1" source="6TGc007-YJCL6H7LoQrK-7" target="6TGc007-YJCL6H7LoQrK-7">
          <mxGeometry width="50" height="50" relative="1" as="geometry">
            <mxPoint x="390" y="360" as="sourcePoint" />
            <mxPoint x="440" y="310" as="targetPoint" />
          </mxGeometry>
        </mxCell>
        <mxCell id="6TGc007-YJCL6H7LoQrK-10" value="D1 ARTIKAL" style="rounded=0;whiteSpace=wrap;html=1;" vertex="1" parent="1">
          <mxGeometry x="350" y="370" width="140" height="80" as="geometry" />
        </mxCell>
        <mxCell id="6TGc007-YJCL6H7LoQrK-12" value="UREĐIVANJE&lt;div&gt;ARTIKLA&lt;/div&gt;" style="rounded=0;whiteSpace=wrap;html=1;" vertex="1" parent="1">
          <mxGeometry x="340" y="190" width="140" height="80" as="geometry" />
        </mxCell>
        <mxCell id="6TGc007-YJCL6H7LoQrK-13" value="" style="endArrow=none;html=1;rounded=0;exitX=0;exitY=0.25;exitDx=0;exitDy=0;entryX=1;entryY=0.25;entryDx=0;entryDy=0;" edge="1" parent="1" source="6TGc007-YJCL6H7LoQrK-12" target="6TGc007-YJCL6H7LoQrK-12">
          <mxGeometry width="50" height="50" relative="1" as="geometry">
            <mxPoint x="530" y="200" as="sourcePoint" />
            <mxPoint x="580" y="150" as="targetPoint" />
          </mxGeometry>
        </mxCell>
        <mxCell id="6TGc007-YJCL6H7LoQrK-14" value="UNOS ARTIKLA" style="rounded=0;whiteSpace=wrap;html=1;" vertex="1" parent="1">
          <mxGeometry x="50" y="370" width="140" height="80" as="geometry" />
        </mxCell>
        <mxCell id="6TGc007-YJCL6H7LoQrK-15" value="" style="endArrow=none;html=1;rounded=0;exitX=0;exitY=0.25;exitDx=0;exitDy=0;entryX=1;entryY=0.25;entryDx=0;entryDy=0;" edge="1" parent="1" source="6TGc007-YJCL6H7LoQrK-14" target="6TGc007-YJCL6H7LoQrK-14">
          <mxGeometry width="50" height="50" relative="1" as="geometry">
            <mxPoint x="430" y="390" as="sourcePoint" />
            <mxPoint x="480" y="340" as="targetPoint" />
          </mxGeometry>
        </mxCell>
        <mxCell id="6TGc007-YJCL6H7LoQrK-16" value="VLASNIK" style="rounded=0;whiteSpace=wrap;html=1;" vertex="1" parent="1">
          <mxGeometry x="270" y="510" width="140" height="80" as="geometry" />
        </mxCell>
        <mxCell id="6TGc007-YJCL6H7LoQrK-18" value="KORISNIK" style="rounded=0;whiteSpace=wrap;html=1;" vertex="1" parent="1">
          <mxGeometry x="890" y="370" width="140" height="80" as="geometry" />
        </mxCell>
        <mxCell id="6TGc007-YJCL6H7LoQrK-20" value="ZAPOSLENIK" style="rounded=0;whiteSpace=wrap;html=1;" vertex="1" parent="1">
          <mxGeometry x="50" y="190" width="140" height="80" as="geometry" />
        </mxCell>
        <mxCell id="6TGc007-YJCL6H7LoQrK-22" value="KONTAKTIRANJE" style="rounded=0;whiteSpace=wrap;html=1;" vertex="1" parent="1">
          <mxGeometry x="890" y="530" width="140" height="80" as="geometry" />
        </mxCell>
        <mxCell id="6TGc007-YJCL6H7LoQrK-23" value="" style="endArrow=none;html=1;rounded=0;exitX=0;exitY=0.25;exitDx=0;exitDy=0;entryX=1;entryY=0.25;entryDx=0;entryDy=0;" edge="1" parent="1" source="6TGc007-YJCL6H7LoQrK-22" target="6TGc007-YJCL6H7LoQrK-22">
          <mxGeometry width="50" height="50" relative="1" as="geometry">
            <mxPoint x="1230" y="250" as="sourcePoint" />
            <mxPoint x="1280" y="200" as="targetPoint" />
          </mxGeometry>
        </mxCell>
        <mxCell id="6TGc007-YJCL6H7LoQrK-28" value="PRETRAŽIVANJE" style="rounded=0;whiteSpace=wrap;html=1;" vertex="1" parent="1">
          <mxGeometry x="890" y="130" width="140" height="80" as="geometry" />
        </mxCell>
        <mxCell id="6TGc007-YJCL6H7LoQrK-29" value="" style="endArrow=none;html=1;rounded=0;exitX=0;exitY=0.25;exitDx=0;exitDy=0;entryX=1;entryY=0.25;entryDx=0;entryDy=0;" edge="1" parent="1" source="6TGc007-YJCL6H7LoQrK-28" target="6TGc007-YJCL6H7LoQrK-28">
          <mxGeometry width="50" height="50" relative="1" as="geometry">
            <mxPoint x="710" y="610" as="sourcePoint" />
            <mxPoint x="760" y="560" as="targetPoint" />
          </mxGeometry>
        </mxCell>
        <mxCell id="6TGc007-YJCL6H7LoQrK-31" value="UREĐIVANJE ZAPOSLENIKA" style="rounded=0;whiteSpace=wrap;html=1;" vertex="1" parent="1">
          <mxGeometry x="460" y="700" width="140" height="80" as="geometry" />
        </mxCell>
        <mxCell id="6TGc007-YJCL6H7LoQrK-32" value="" style="endArrow=none;html=1;rounded=0;exitX=0;exitY=0.25;exitDx=0;exitDy=0;entryX=1;entryY=0.25;entryDx=0;entryDy=0;" edge="1" parent="1" source="6TGc007-YJCL6H7LoQrK-31" target="6TGc007-YJCL6H7LoQrK-31">
          <mxGeometry width="50" height="50" relative="1" as="geometry">
            <mxPoint x="260" y="590" as="sourcePoint" />
            <mxPoint x="310" y="540" as="targetPoint" />
          </mxGeometry>
        </mxCell>
        <mxCell id="6TGc007-YJCL6H7LoQrK-33" value="UNOS ZPOSLENIKA" style="rounded=0;whiteSpace=wrap;html=1;" vertex="1" parent="1">
          <mxGeometry x="260" y="700" width="140" height="80" as="geometry" />
        </mxCell>
        <mxCell id="6TGc007-YJCL6H7LoQrK-34" value="" style="endArrow=none;html=1;rounded=0;exitX=0;exitY=0.25;exitDx=0;exitDy=0;entryX=1;entryY=0.25;entryDx=0;entryDy=0;" edge="1" parent="1" source="6TGc007-YJCL6H7LoQrK-33" target="6TGc007-YJCL6H7LoQrK-33">
          <mxGeometry width="50" height="50" relative="1" as="geometry">
            <mxPoint x="260" y="600" as="sourcePoint" />
            <mxPoint x="310" y="550" as="targetPoint" />
          </mxGeometry>
        </mxCell>
        <mxCell id="6TGc007-YJCL6H7LoQrK-35" value="NARUČIVANJE" style="rounded=0;whiteSpace=wrap;html=1;" vertex="1" parent="1">
          <mxGeometry x="580" y="510" width="140" height="80" as="geometry" />
        </mxCell>
        <mxCell id="6TGc007-YJCL6H7LoQrK-36" value="" style="endArrow=none;html=1;rounded=0;exitX=0;exitY=0.25;exitDx=0;exitDy=0;entryX=1;entryY=0.25;entryDx=0;entryDy=0;" edge="1" parent="1" source="6TGc007-YJCL6H7LoQrK-35" target="6TGc007-YJCL6H7LoQrK-35">
          <mxGeometry width="50" height="50" relative="1" as="geometry">
            <mxPoint x="570" y="510" as="sourcePoint" />
            <mxPoint x="620" y="460" as="targetPoint" />
          </mxGeometry>
        </mxCell>
        <mxCell id="6TGc007-YJCL6H7LoQrK-37" value="ZAPOSLENIK" style="rounded=0;whiteSpace=wrap;html=1;" vertex="1" parent="1">
          <mxGeometry x="1250" y="360" width="140" height="80" as="geometry" />
        </mxCell>
        <mxCell id="6TGc007-YJCL6H7LoQrK-38" value="D3 TIKET" style="rounded=0;whiteSpace=wrap;html=1;" vertex="1" parent="1">
          <mxGeometry x="1250" y="530" width="140" height="80" as="geometry" />
        </mxCell>
        <mxCell id="6TGc007-YJCL6H7LoQrK-39" value="D3 ZAPOSLENIK" style="whiteSpace=wrap;html=1;" vertex="1" parent="1">
          <mxGeometry x="270" y="890" width="120" height="60" as="geometry" />
        </mxCell>
        <mxCell id="6TGc007-YJCL6H7LoQrK-40" value="POPIS ZAPOSLENIKA" style="rounded=0;whiteSpace=wrap;html=1;" vertex="1" parent="1">
          <mxGeometry x="80" y="700" width="140" height="80" as="geometry" />
        </mxCell>
        <mxCell id="6TGc007-YJCL6H7LoQrK-41" value="" style="endArrow=none;html=1;rounded=0;exitX=0;exitY=0.25;exitDx=0;exitDy=0;entryX=1;entryY=0.25;entryDx=0;entryDy=0;" edge="1" parent="1" source="6TGc007-YJCL6H7LoQrK-40" target="6TGc007-YJCL6H7LoQrK-40">
          <mxGeometry width="50" height="50" relative="1" as="geometry">
            <mxPoint x="-120" y="590" as="sourcePoint" />
            <mxPoint x="-70" y="540" as="targetPoint" />
          </mxGeometry>
        </mxCell>
        <mxCell id="6TGc007-YJCL6H7LoQrK-42" value="P1" style="text;html=1;align=center;verticalAlign=middle;resizable=0;points=[];autosize=1;strokeColor=none;fillColor=none;" vertex="1" parent="1">
          <mxGeometry x="100" y="370" width="40" height="30" as="geometry" />
        </mxCell>
        <mxCell id="6TGc007-YJCL6H7LoQrK-43" value="P2" style="text;html=1;align=center;verticalAlign=middle;resizable=0;points=[];autosize=1;strokeColor=none;fillColor=none;" vertex="1" parent="1">
          <mxGeometry x="390" y="190" width="40" height="30" as="geometry" />
        </mxCell>
        <mxCell id="6TGc007-YJCL6H7LoQrK-44" value="P3" style="text;html=1;align=center;verticalAlign=middle;resizable=0;points=[];autosize=1;strokeColor=none;fillColor=none;" vertex="1" parent="1">
          <mxGeometry x="660" y="370" width="40" height="30" as="geometry" />
        </mxCell>
        <mxCell id="6TGc007-YJCL6H7LoQrK-45" value="P4" style="text;html=1;align=center;verticalAlign=middle;resizable=0;points=[];autosize=1;strokeColor=none;fillColor=none;" vertex="1" parent="1">
          <mxGeometry x="940" y="130" width="40" height="30" as="geometry" />
        </mxCell>
        <mxCell id="6TGc007-YJCL6H7LoQrK-48" value="P6" style="text;html=1;align=center;verticalAlign=middle;resizable=0;points=[];autosize=1;strokeColor=none;fillColor=none;" vertex="1" parent="1">
          <mxGeometry x="940" y="530" width="40" height="30" as="geometry" />
        </mxCell>
        <mxCell id="6TGc007-YJCL6H7LoQrK-49" value="P7" style="text;html=1;align=center;verticalAlign=middle;resizable=0;points=[];autosize=1;strokeColor=none;fillColor=none;" vertex="1" parent="1">
          <mxGeometry x="630" y="510" width="40" height="30" as="geometry" />
        </mxCell>
        <mxCell id="6TGc007-YJCL6H7LoQrK-50" value="P8" style="text;html=1;align=center;verticalAlign=middle;resizable=0;points=[];autosize=1;strokeColor=none;fillColor=none;" vertex="1" parent="1">
          <mxGeometry x="130" y="700" width="40" height="30" as="geometry" />
        </mxCell>
        <mxCell id="6TGc007-YJCL6H7LoQrK-51" value="P9" style="text;html=1;align=center;verticalAlign=middle;resizable=0;points=[];autosize=1;strokeColor=none;fillColor=none;" vertex="1" parent="1">
          <mxGeometry x="310" y="700" width="40" height="30" as="geometry" />
        </mxCell>
        <mxCell id="6TGc007-YJCL6H7LoQrK-55" value="P10" style="text;html=1;align=center;verticalAlign=middle;resizable=0;points=[];autosize=1;strokeColor=none;fillColor=none;" vertex="1" parent="1">
          <mxGeometry x="510" y="700" width="40" height="30" as="geometry" />
        </mxCell>
        <mxCell id="6TGc007-YJCL6H7LoQrK-56" value="" style="endArrow=classic;html=1;rounded=0;exitX=0.5;exitY=1;exitDx=0;exitDy=0;entryX=0.5;entryY=-0.167;entryDx=0;entryDy=0;entryPerimeter=0;" edge="1" parent="1" source="6TGc007-YJCL6H7LoQrK-20" target="6TGc007-YJCL6H7LoQrK-42">
          <mxGeometry relative="1" as="geometry">
            <mxPoint x="370" y="570" as="sourcePoint" />
            <mxPoint x="470" y="570" as="targetPoint" />
          </mxGeometry>
        </mxCell>
        <mxCell id="6TGc007-YJCL6H7LoQrK-57" value="NOVI ARTIKAL" style="edgeLabel;resizable=0;html=1;;align=center;verticalAlign=middle;" connectable="0" vertex="1" parent="6TGc007-YJCL6H7LoQrK-56">
          <mxGeometry relative="1" as="geometry" />
        </mxCell>
        <mxCell id="6TGc007-YJCL6H7LoQrK-59" value="" style="endArrow=classic;html=1;rounded=0;exitX=1;exitY=0.5;exitDx=0;exitDy=0;entryX=0;entryY=0.5;entryDx=0;entryDy=0;" edge="1" parent="1" source="6TGc007-YJCL6H7LoQrK-20" target="6TGc007-YJCL6H7LoQrK-12">
          <mxGeometry relative="1" as="geometry">
            <mxPoint x="370" y="570" as="sourcePoint" />
            <mxPoint x="470" y="570" as="targetPoint" />
          </mxGeometry>
        </mxCell>
        <mxCell id="6TGc007-YJCL6H7LoQrK-60" value="UREDI ARTIKAL" style="edgeLabel;resizable=0;html=1;;align=center;verticalAlign=middle;" connectable="0" vertex="1" parent="6TGc007-YJCL6H7LoQrK-59">
          <mxGeometry relative="1" as="geometry" />
        </mxCell>
        <mxCell id="6TGc007-YJCL6H7LoQrK-62" value="" style="endArrow=classic;html=1;rounded=0;exitX=0.5;exitY=1;exitDx=0;exitDy=0;entryX=0.5;entryY=0;entryDx=0;entryDy=0;" edge="1" parent="1" source="6TGc007-YJCL6H7LoQrK-12" target="6TGc007-YJCL6H7LoQrK-10">
          <mxGeometry relative="1" as="geometry">
            <mxPoint x="370" y="570" as="sourcePoint" />
            <mxPoint x="470" y="570" as="targetPoint" />
          </mxGeometry>
        </mxCell>
        <mxCell id="6TGc007-YJCL6H7LoQrK-63" value="ARTIKAL" style="edgeLabel;resizable=0;html=1;;align=center;verticalAlign=middle;" connectable="0" vertex="1" parent="6TGc007-YJCL6H7LoQrK-62">
          <mxGeometry relative="1" as="geometry" />
        </mxCell>
        <mxCell id="6TGc007-YJCL6H7LoQrK-64" value="" style="endArrow=classic;html=1;rounded=0;exitX=1;exitY=0.5;exitDx=0;exitDy=0;entryX=0;entryY=0.5;entryDx=0;entryDy=0;" edge="1" parent="1" source="6TGc007-YJCL6H7LoQrK-14" target="6TGc007-YJCL6H7LoQrK-10">
          <mxGeometry relative="1" as="geometry">
            <mxPoint x="380" y="580" as="sourcePoint" />
            <mxPoint x="480" y="580" as="targetPoint" />
          </mxGeometry>
        </mxCell>
        <mxCell id="6TGc007-YJCL6H7LoQrK-65" value="ARTIKAL" style="edgeLabel;resizable=0;html=1;;align=center;verticalAlign=middle;" connectable="0" vertex="1" parent="6TGc007-YJCL6H7LoQrK-64">
          <mxGeometry relative="1" as="geometry" />
        </mxCell>
        <mxCell id="6TGc007-YJCL6H7LoQrK-66" value="" style="endArrow=classic;html=1;rounded=0;exitX=0;exitY=0.25;exitDx=0;exitDy=0;entryX=1;entryY=0.25;entryDx=0;entryDy=0;" edge="1" parent="1" source="6TGc007-YJCL6H7LoQrK-18" target="6TGc007-YJCL6H7LoQrK-7">
          <mxGeometry relative="1" as="geometry">
            <mxPoint x="720" y="510" as="sourcePoint" />
            <mxPoint x="490" y="590" as="targetPoint" />
          </mxGeometry>
        </mxCell>
        <mxCell id="6TGc007-YJCL6H7LoQrK-67" value="UPIT" style="edgeLabel;resizable=0;html=1;;align=center;verticalAlign=middle;" connectable="0" vertex="1" parent="6TGc007-YJCL6H7LoQrK-66">
          <mxGeometry relative="1" as="geometry" />
        </mxCell>
        <mxCell id="6TGc007-YJCL6H7LoQrK-68" value="" style="endArrow=classic;html=1;rounded=0;exitX=1;exitY=0.5;exitDx=0;exitDy=0;entryX=0;entryY=0.5;entryDx=0;entryDy=0;" edge="1" parent="1" source="6TGc007-YJCL6H7LoQrK-10" target="6TGc007-YJCL6H7LoQrK-7">
          <mxGeometry relative="1" as="geometry">
            <mxPoint x="360" y="539.5" as="sourcePoint" />
            <mxPoint x="460" y="539.5" as="targetPoint" />
          </mxGeometry>
        </mxCell>
        <mxCell id="6TGc007-YJCL6H7LoQrK-69" value="ARTIKAL" style="edgeLabel;resizable=0;html=1;;align=center;verticalAlign=middle;" connectable="0" vertex="1" parent="6TGc007-YJCL6H7LoQrK-68">
          <mxGeometry relative="1" as="geometry" />
        </mxCell>
        <mxCell id="6TGc007-YJCL6H7LoQrK-71" value="" style="endArrow=classic;html=1;rounded=0;exitX=1;exitY=0.75;exitDx=0;exitDy=0;entryX=0;entryY=0.75;entryDx=0;entryDy=0;" edge="1" parent="1" source="6TGc007-YJCL6H7LoQrK-7" target="6TGc007-YJCL6H7LoQrK-18">
          <mxGeometry relative="1" as="geometry">
            <mxPoint x="410" y="610" as="sourcePoint" />
            <mxPoint x="510" y="610" as="targetPoint" />
          </mxGeometry>
        </mxCell>
        <mxCell id="6TGc007-YJCL6H7LoQrK-72" value="REZULTATI" style="edgeLabel;resizable=0;html=1;;align=center;verticalAlign=middle;" connectable="0" vertex="1" parent="6TGc007-YJCL6H7LoQrK-71">
          <mxGeometry relative="1" as="geometry" />
        </mxCell>
        <mxCell id="6TGc007-YJCL6H7LoQrK-78" value="" style="endArrow=classic;html=1;rounded=0;exitX=0.5;exitY=1;exitDx=0;exitDy=0;entryX=0.8;entryY=-0.033;entryDx=0;entryDy=0;entryPerimeter=0;" edge="1" parent="1" source="6TGc007-YJCL6H7LoQrK-16" target="6TGc007-YJCL6H7LoQrK-51">
          <mxGeometry relative="1" as="geometry">
            <mxPoint x="440" y="640" as="sourcePoint" />
            <mxPoint x="540" y="640" as="targetPoint" />
          </mxGeometry>
        </mxCell>
        <mxCell id="6TGc007-YJCL6H7LoQrK-79" value="NOVI ZAPOSLENIK" style="edgeLabel;resizable=0;html=1;;align=center;verticalAlign=middle;" connectable="0" vertex="1" parent="6TGc007-YJCL6H7LoQrK-78">
          <mxGeometry relative="1" as="geometry" />
        </mxCell>
        <mxCell id="6TGc007-YJCL6H7LoQrK-80" value="" style="endArrow=classic;html=1;rounded=0;exitX=0.75;exitY=1;exitDx=0;exitDy=0;entryX=0.5;entryY=-0.1;entryDx=0;entryDy=0;entryPerimeter=0;" edge="1" parent="1" source="6TGc007-YJCL6H7LoQrK-16" target="6TGc007-YJCL6H7LoQrK-55">
          <mxGeometry relative="1" as="geometry">
            <mxPoint x="450" y="650" as="sourcePoint" />
            <mxPoint x="550" y="650" as="targetPoint" />
          </mxGeometry>
        </mxCell>
        <mxCell id="6TGc007-YJCL6H7LoQrK-81" value="UREDI ZAPOSLENIKA" style="edgeLabel;resizable=0;html=1;;align=center;verticalAlign=middle;" connectable="0" vertex="1" parent="6TGc007-YJCL6H7LoQrK-80">
          <mxGeometry relative="1" as="geometry" />
        </mxCell>
        <mxCell id="6TGc007-YJCL6H7LoQrK-82" value="" style="endArrow=classic;html=1;rounded=0;exitX=0;exitY=1;exitDx=0;exitDy=0;entryX=0.25;entryY=0;entryDx=0;entryDy=0;" edge="1" parent="1" source="6TGc007-YJCL6H7LoQrK-16" target="6TGc007-YJCL6H7LoQrK-40">
          <mxGeometry relative="1" as="geometry">
            <mxPoint x="460" y="660" as="sourcePoint" />
            <mxPoint x="560" y="660" as="targetPoint" />
          </mxGeometry>
        </mxCell>
        <mxCell id="6TGc007-YJCL6H7LoQrK-83" value="UPIT" style="edgeLabel;resizable=0;html=1;;align=center;verticalAlign=middle;" connectable="0" vertex="1" parent="6TGc007-YJCL6H7LoQrK-82">
          <mxGeometry relative="1" as="geometry" />
        </mxCell>
        <mxCell id="6TGc007-YJCL6H7LoQrK-84" value="" style="endArrow=classic;html=1;rounded=0;exitX=0.75;exitY=0;exitDx=0;exitDy=0;entryX=0.393;entryY=1.088;entryDx=0;entryDy=0;entryPerimeter=0;" edge="1" parent="1" source="6TGc007-YJCL6H7LoQrK-40" target="6TGc007-YJCL6H7LoQrK-16">
          <mxGeometry relative="1" as="geometry">
            <mxPoint x="470" y="670" as="sourcePoint" />
            <mxPoint x="570" y="670" as="targetPoint" />
          </mxGeometry>
        </mxCell>
        <mxCell id="6TGc007-YJCL6H7LoQrK-85" value="REZULTATI" style="edgeLabel;resizable=0;html=1;;align=center;verticalAlign=middle;" connectable="0" vertex="1" parent="6TGc007-YJCL6H7LoQrK-84">
          <mxGeometry relative="1" as="geometry" />
        </mxCell>
        <mxCell id="6TGc007-YJCL6H7LoQrK-86" value="" style="endArrow=classic;html=1;rounded=0;entryX=0.5;entryY=1;entryDx=0;entryDy=0;exitX=0;exitY=0;exitDx=0;exitDy=0;" edge="1" parent="1" source="6TGc007-YJCL6H7LoQrK-39" target="6TGc007-YJCL6H7LoQrK-40">
          <mxGeometry relative="1" as="geometry">
            <mxPoint x="480" y="680" as="sourcePoint" />
            <mxPoint x="580" y="680" as="targetPoint" />
          </mxGeometry>
        </mxCell>
        <mxCell id="6TGc007-YJCL6H7LoQrK-87" value="ZAPOSLENIK" style="edgeLabel;resizable=0;html=1;;align=center;verticalAlign=middle;" connectable="0" vertex="1" parent="6TGc007-YJCL6H7LoQrK-86">
          <mxGeometry relative="1" as="geometry" />
        </mxCell>
        <mxCell id="6TGc007-YJCL6H7LoQrK-89" value="" style="endArrow=classic;html=1;rounded=0;exitX=0.5;exitY=1;exitDx=0;exitDy=0;entryX=1;entryY=0;entryDx=0;entryDy=0;" edge="1" parent="1" source="6TGc007-YJCL6H7LoQrK-31" target="6TGc007-YJCL6H7LoQrK-39">
          <mxGeometry relative="1" as="geometry">
            <mxPoint x="660" y="699" as="sourcePoint" />
            <mxPoint x="760" y="699" as="targetPoint" />
          </mxGeometry>
        </mxCell>
        <mxCell id="6TGc007-YJCL6H7LoQrK-90" value="ZAPOSLENIK" style="edgeLabel;resizable=0;html=1;;align=center;verticalAlign=middle;" connectable="0" vertex="1" parent="6TGc007-YJCL6H7LoQrK-89">
          <mxGeometry relative="1" as="geometry" />
        </mxCell>
        <mxCell id="6TGc007-YJCL6H7LoQrK-91" value="" style="endArrow=classic;html=1;rounded=0;entryX=0.5;entryY=0;entryDx=0;entryDy=0;exitX=0.5;exitY=1;exitDx=0;exitDy=0;" edge="1" parent="1" source="6TGc007-YJCL6H7LoQrK-33" target="6TGc007-YJCL6H7LoQrK-39">
          <mxGeometry relative="1" as="geometry">
            <mxPoint x="500" y="700" as="sourcePoint" />
            <mxPoint x="600" y="700" as="targetPoint" />
          </mxGeometry>
        </mxCell>
        <mxCell id="6TGc007-YJCL6H7LoQrK-92" value="ZAPOSLENIK" style="edgeLabel;resizable=0;html=1;;align=center;verticalAlign=middle;" connectable="0" vertex="1" parent="6TGc007-YJCL6H7LoQrK-91">
          <mxGeometry relative="1" as="geometry" />
        </mxCell>
        <mxCell id="6TGc007-YJCL6H7LoQrK-93" value="" style="endArrow=classic;html=1;rounded=0;entryX=0;entryY=0.25;entryDx=0;entryDy=0;exitX=1;exitY=0.25;exitDx=0;exitDy=0;" edge="1" parent="1" source="6TGc007-YJCL6H7LoQrK-22" target="6TGc007-YJCL6H7LoQrK-38">
          <mxGeometry relative="1" as="geometry">
            <mxPoint x="510" y="710" as="sourcePoint" />
            <mxPoint x="610" y="710" as="targetPoint" />
          </mxGeometry>
        </mxCell>
        <mxCell id="6TGc007-YJCL6H7LoQrK-94" value="NOVA PORUKA" style="edgeLabel;resizable=0;html=1;;align=center;verticalAlign=middle;" connectable="0" vertex="1" parent="6TGc007-YJCL6H7LoQrK-93">
          <mxGeometry relative="1" as="geometry" />
        </mxCell>
        <mxCell id="6TGc007-YJCL6H7LoQrK-95" value="" style="endArrow=classic;html=1;rounded=0;entryX=1;entryY=0.75;entryDx=0;entryDy=0;exitX=0;exitY=0.75;exitDx=0;exitDy=0;" edge="1" parent="1" source="6TGc007-YJCL6H7LoQrK-38" target="6TGc007-YJCL6H7LoQrK-22">
          <mxGeometry relative="1" as="geometry">
            <mxPoint x="520" y="720" as="sourcePoint" />
            <mxPoint x="620" y="720" as="targetPoint" />
          </mxGeometry>
        </mxCell>
        <mxCell id="6TGc007-YJCL6H7LoQrK-96" value="ODGOVOR" style="edgeLabel;resizable=0;html=1;;align=center;verticalAlign=middle;" connectable="0" vertex="1" parent="6TGc007-YJCL6H7LoQrK-95">
          <mxGeometry relative="1" as="geometry" />
        </mxCell>
        <mxCell id="6TGc007-YJCL6H7LoQrK-97" value="" style="endArrow=classic;html=1;rounded=0;exitX=0.25;exitY=1;exitDx=0;exitDy=0;entryX=0.25;entryY=0;entryDx=0;entryDy=0;" edge="1" parent="1" source="6TGc007-YJCL6H7LoQrK-18" target="6TGc007-YJCL6H7LoQrK-22">
          <mxGeometry relative="1" as="geometry">
            <mxPoint x="530" y="730" as="sourcePoint" />
            <mxPoint x="630" y="730" as="targetPoint" />
          </mxGeometry>
        </mxCell>
        <mxCell id="6TGc007-YJCL6H7LoQrK-98" value="NOVA PORUKA" style="edgeLabel;resizable=0;html=1;;align=center;verticalAlign=middle;" connectable="0" vertex="1" parent="6TGc007-YJCL6H7LoQrK-97">
          <mxGeometry relative="1" as="geometry" />
        </mxCell>
        <mxCell id="6TGc007-YJCL6H7LoQrK-100" value="" style="endArrow=classic;html=1;rounded=0;entryX=0.75;entryY=0;entryDx=0;entryDy=0;exitX=0.75;exitY=1;exitDx=0;exitDy=0;" edge="1" parent="1" source="6TGc007-YJCL6H7LoQrK-37" target="6TGc007-YJCL6H7LoQrK-38">
          <mxGeometry relative="1" as="geometry">
            <mxPoint x="540" y="740" as="sourcePoint" />
            <mxPoint x="640" y="740" as="targetPoint" />
          </mxGeometry>
        </mxCell>
        <mxCell id="6TGc007-YJCL6H7LoQrK-101" value="ARTIKAL" style="edgeLabel;resizable=0;html=1;;align=center;verticalAlign=middle;" connectable="0" vertex="1" parent="6TGc007-YJCL6H7LoQrK-100">
          <mxGeometry relative="1" as="geometry" />
        </mxCell>
        <mxCell id="6TGc007-YJCL6H7LoQrK-102" value="" style="endArrow=classic;html=1;rounded=0;entryX=0.25;entryY=1;entryDx=0;entryDy=0;exitX=0.25;exitY=0;exitDx=0;exitDy=0;" edge="1" parent="1" source="6TGc007-YJCL6H7LoQrK-38" target="6TGc007-YJCL6H7LoQrK-37">
          <mxGeometry relative="1" as="geometry">
            <mxPoint x="550" y="750" as="sourcePoint" />
            <mxPoint x="650" y="750" as="targetPoint" />
          </mxGeometry>
        </mxCell>
        <mxCell id="6TGc007-YJCL6H7LoQrK-103" value="ARTIKAL" style="edgeLabel;resizable=0;html=1;;align=center;verticalAlign=middle;" connectable="0" vertex="1" parent="6TGc007-YJCL6H7LoQrK-102">
          <mxGeometry relative="1" as="geometry" />
        </mxCell>
        <mxCell id="6TGc007-YJCL6H7LoQrK-104" value="" style="endArrow=classic;html=1;rounded=0;exitX=0.75;exitY=0;exitDx=0;exitDy=0;entryX=0.75;entryY=1;entryDx=0;entryDy=0;" edge="1" parent="1" source="6TGc007-YJCL6H7LoQrK-22" target="6TGc007-YJCL6H7LoQrK-18">
          <mxGeometry relative="1" as="geometry">
            <mxPoint x="560" y="760" as="sourcePoint" />
            <mxPoint x="660" y="760" as="targetPoint" />
          </mxGeometry>
        </mxCell>
        <mxCell id="6TGc007-YJCL6H7LoQrK-105" value="ODGOVOR" style="edgeLabel;resizable=0;html=1;;align=center;verticalAlign=middle;" connectable="0" vertex="1" parent="6TGc007-YJCL6H7LoQrK-104">
          <mxGeometry relative="1" as="geometry" />
        </mxCell>
        <mxCell id="6TGc007-YJCL6H7LoQrK-106" value="" style="endArrow=classic;html=1;rounded=0;exitX=0;exitY=0.5;exitDx=0;exitDy=0;entryX=1;entryY=0.5;entryDx=0;entryDy=0;" edge="1" parent="1" source="6TGc007-YJCL6H7LoQrK-35" target="6TGc007-YJCL6H7LoQrK-16">
          <mxGeometry relative="1" as="geometry">
            <mxPoint x="570" y="770" as="sourcePoint" />
            <mxPoint x="670" y="770" as="targetPoint" />
          </mxGeometry>
        </mxCell>
        <mxCell id="6TGc007-YJCL6H7LoQrK-107" value="REULTATI" style="edgeLabel;resizable=0;html=1;;align=center;verticalAlign=middle;" connectable="0" vertex="1" parent="6TGc007-YJCL6H7LoQrK-106">
          <mxGeometry relative="1" as="geometry" />
        </mxCell>
        <mxCell id="6TGc007-YJCL6H7LoQrK-108" value="" style="endArrow=classic;html=1;rounded=0;exitX=0;exitY=0.5;exitDx=0;exitDy=0;entryX=1;entryY=0.75;entryDx=0;entryDy=0;" edge="1" parent="1" source="6TGc007-YJCL6H7LoQrK-22" target="6TGc007-YJCL6H7LoQrK-35">
          <mxGeometry relative="1" as="geometry">
            <mxPoint x="580" y="780" as="sourcePoint" />
            <mxPoint x="680" y="780" as="targetPoint" />
          </mxGeometry>
        </mxCell>
        <mxCell id="6TGc007-YJCL6H7LoQrK-109" value="NOVA PORUKA" style="edgeLabel;resizable=0;html=1;;align=center;verticalAlign=middle;" connectable="0" vertex="1" parent="6TGc007-YJCL6H7LoQrK-108">
          <mxGeometry relative="1" as="geometry" />
        </mxCell>
        <mxCell id="6TGc007-YJCL6H7LoQrK-110" value="" style="endArrow=classic;html=1;rounded=0;exitX=0.475;exitY=-0.133;exitDx=0;exitDy=0;entryX=0;entryY=0.5;entryDx=0;entryDy=0;exitPerimeter=0;" edge="1" parent="1" source="6TGc007-YJCL6H7LoQrK-44" target="6TGc007-YJCL6H7LoQrK-28">
          <mxGeometry relative="1" as="geometry">
            <mxPoint x="590" y="790" as="sourcePoint" />
            <mxPoint x="690" y="790" as="targetPoint" />
          </mxGeometry>
        </mxCell>
        <mxCell id="6TGc007-YJCL6H7LoQrK-111" value="ARTIKLI" style="edgeLabel;resizable=0;html=1;;align=center;verticalAlign=middle;" connectable="0" vertex="1" parent="6TGc007-YJCL6H7LoQrK-110">
          <mxGeometry relative="1" as="geometry" />
        </mxCell>
        <mxCell id="6TGc007-YJCL6H7LoQrK-113" value="" style="endArrow=classic;html=1;rounded=0;exitX=0.75;exitY=0;exitDx=0;exitDy=0;entryX=0.75;entryY=1;entryDx=0;entryDy=0;" edge="1" parent="1" source="6TGc007-YJCL6H7LoQrK-18" target="6TGc007-YJCL6H7LoQrK-28">
          <mxGeometry relative="1" as="geometry">
            <mxPoint x="750" y="360" as="sourcePoint" />
            <mxPoint x="1030" y="210" as="targetPoint" />
          </mxGeometry>
        </mxCell>
        <mxCell id="6TGc007-YJCL6H7LoQrK-114" value="UPIT" style="edgeLabel;resizable=0;html=1;;align=center;verticalAlign=middle;" connectable="0" vertex="1" parent="6TGc007-YJCL6H7LoQrK-113">
          <mxGeometry relative="1" as="geometry" />
        </mxCell>
        <mxCell id="6TGc007-YJCL6H7LoQrK-119" value="" style="endArrow=classic;html=1;rounded=0;exitX=0.25;exitY=1;exitDx=0;exitDy=0;entryX=0.25;entryY=0;entryDx=0;entryDy=0;" edge="1" parent="1" source="6TGc007-YJCL6H7LoQrK-28" target="6TGc007-YJCL6H7LoQrK-18">
          <mxGeometry relative="1" as="geometry">
            <mxPoint x="920" y="400" as="sourcePoint" />
            <mxPoint x="780" y="300" as="targetPoint" />
          </mxGeometry>
        </mxCell>
        <mxCell id="6TGc007-YJCL6H7LoQrK-120" value="REZULTATI" style="edgeLabel;resizable=0;html=1;;align=center;verticalAlign=middle;" connectable="0" vertex="1" parent="6TGc007-YJCL6H7LoQrK-119">
          <mxGeometry relative="1" as="geometry" />
        </mxCell>
      </root>
    </mxGraphModel>
  </diagram>
</mxfile>
